<?xml version="1.0" standalone="no"?>
<!DOCTYPE svg PUBLIC "-//W3C//DTD SVG 20010904//EN"
 "http://www.w3.org/TR/2001/REC-SVG-20010904/DTD/svg10.dtd">
<svg version="1.0" xmlns="http://www.w3.org/2000/svg"
 width="255.000000pt" height="255.000000pt" viewBox="0 0 255.000000 255.000000"
 preserveAspectRatio="xMidYMid meet">
<metadata>
Created by potrace 1.11, written by Peter Selinger 2001-2013
</metadata>
<g transform="translate(0.000000,255.000000) scale(0.100000,-0.100000)"
fill="#000000" stroke="none">
<path d="M1139 2545 c-2 -2 -28 -6 -58 -10 -201 -25 -428 -126 -606 -268 -199
-160 -351 -386 -420 -621 -25 -89 -29 -105 -45 -201 -13 -74 -5 -329 13 -416
66 -328 256 -614 534 -807 99 -68 287 -155 386 -178 9 -2 27 -6 40 -9 12 -3
38 -8 57 -11 19 -3 54 -9 78 -14 70 -13 309 -4 397 14 487 102 851 439 988
916 31 107 39 166 42 310 6 243 -50 459 -172 668 -184 315 -482 529 -848 608
-70 15 -375 30 -386 19z m291 -101 c30 -4 57 -8 60 -9 3 -1 32 -7 64 -14 314
-69 621 -314 775 -619 42 -83 98 -252 106 -322 4 -30 9 -58 12 -62 8 -14 4
-243 -6 -313 -28 -190 -119 -404 -237 -556 -44 -56 -184 -189 -244 -231 -107
-75 -273 -158 -350 -173 -8 -2 -33 -8 -55 -14 -22 -5 -56 -13 -75 -16 -19 -3
-46 -7 -60 -10 -41 -8 -168 -10 -175 -3 -4 3 -7 174 -7 380 0 405 -9 502 -53
635 -46 135 -110 218 -200 259 -50 23 -76 28 -190 39 -33 3 -76 8 -95 10 -19
2 -62 7 -95 10 -33 4 -71 8 -85 10 -14 2 -63 9 -110 15 -47 6 -100 14 -119 16
l-34 6 6 -89 c18 -298 216 -459 560 -456 77 0 104 16 92 52 -7 25 -22 29 -130
36 -154 10 -263 53 -336 133 -42 44 -92 142 -104 199 -6 29 -4 32 17 28 44 -7
242 -32 323 -40 47 -5 124 -14 179 -21 84 -11 161 -71 232 -178 l39 -59 3
-492 3 -493 -78 15 c-164 30 -350 108 -475 200 -588 431 -660 1265 -156 1782
191 195 460 326 713 347 39 4 71 7 73 8 5 5 158 -3 212 -10z"/>
<path d="M1980 1815 c-52 -7 -120 -16 -150 -19 -30 -3 -93 -11 -140 -16 -47
-6 -105 -13 -130 -16 -72 -9 -97 -13 -122 -23 -54 -20 -168 -124 -210 -190
-15 -25 -15 -28 7 -59 l22 -33 32 50 c62 96 153 157 248 167 27 2 64 6 83 9
19 2 60 7 90 10 30 3 104 12 163 20 155 21 159 21 151 -12 -15 -68 -69 -165
-114 -207 -84 -79 -168 -111 -310 -121 -47 -3 -97 -8 -112 -11 -34 -7 -46 -39
-24 -63 14 -15 31 -18 114 -15 118 3 212 24 293 65 150 75 239 233 235 416 -1
68 5 66 -126 48z"/>
<path d="M920 1578 c-19 -5 -36 -11 -38 -12 -1 -2 5 -20 13 -40 15 -35 18 -37
48 -30 53 11 71 11 99 -3 54 -26 95 -106 93 -178 -1 -17 13 -52 32 -83 18 -30
40 -76 48 -103 9 -27 18 -49 19 -49 1 0 2 71 1 158 -2 185 -18 236 -91 301
-58 51 -135 65 -224 39z"/>
</g>
</svg>
