<?xml version="1.0" standalone="no"?>
<!DOCTYPE svg PUBLIC "-//W3C//DTD SVG 20010904//EN"
 "http://www.w3.org/TR/2001/REC-SVG-20010904/DTD/svg10.dtd">
<svg version="1.0" xmlns="http://www.w3.org/2000/svg"
 width="375.000000pt" height="375.000000pt" viewBox="0 0 375.000000 375.000000"
 preserveAspectRatio="xMidYMid meet">
<metadata>
Created by potrace 1.11, written by Peter Selinger 2001-2013
</metadata>
<g transform="translate(0.000000,375.000000) scale(0.100000,-0.100000)"
fill="#000000" stroke="none">
<path d="M3610 3567 c-3 -3 -36 -8 -75 -11 -38 -3 -79 -8 -90 -10 -11 -2 -50
-7 -87 -10 -37 -4 -77 -9 -90 -11 -13 -2 -50 -6 -82 -10 -33 -3 -73 -7 -90
-10 -17 -2 -71 -9 -121 -15 -49 -6 -124 -15 -165 -20 -139 -17 -185 -23 -205
-25 -188 -18 -238 -31 -321 -81 -108 -65 -234 -184 -333 -315 l-48 -63 44 -59
c23 -33 43 -64 43 -71 0 -6 23 25 51 69 93 145 257 285 380 324 47 15 68 19
142 26 63 6 284 31 347 40 19 3 60 7 90 11 97 10 104 11 155 18 28 4 68 9 90
11 43 5 71 9 180 25 39 5 73 10 77 10 11 0 -22 -123 -57 -209 -105 -256 -321
-428 -600 -477 -22 -4 -49 -8 -60 -10 -36 -7 -128 -14 -231 -19 -131 -5 -170
-21 -178 -72 -4 -21 16 -64 38 -82 26 -22 281 -16 455 10 493 75 794 432 787
934 -1 93 -3 100 -21 103 -12 2 -23 1 -25 -1z"/>
<path d="M1346 3085 c-42 -12 -78 -24 -81 -27 -5 -5 43 -138 55 -151 4 -5 23
-1 41 9 45 23 147 27 204 7 30 -10 59 -31 86 -61 72 -83 99 -156 104 -284 2
-72 5 -81 47 -145 52 -80 70 -117 114 -238 l33 -90 1 80 c3 189 0 484 -5 514
-24 139 -115 281 -223 350 -100 63 -237 76 -376 36z"/>
<path d="M52 2776 c2 -283 85 -503 254 -672 81 -82 167 -135 309 -195 34 -15
207 -58 255 -64 104 -13 132 -15 268 -16 159 -1 174 4 191 65 17 65 -28 94
-156 101 -130 7 -257 16 -263 20 -3 2 -21 6 -40 9 -74 12 -93 17 -154 40 -137
52 -230 115 -319 215 -84 95 -168 273 -191 404 -5 30 -7 30 114 12 14 -2 48
-7 75 -10 28 -3 64 -8 80 -10 36 -5 106 -13 160 -20 22 -3 67 -7 100 -11 33
-3 87 -9 120 -14 33 -5 92 -12 130 -15 39 -4 77 -8 85 -10 8 -2 51 -7 95 -11
44 -3 107 -15 140 -25 157 -48 317 -207 426 -420 l34 -66 -1 -944 c0 -519 -2
-954 -5 -967 -3 -19 3 -26 29 -37 18 -8 32 -10 32 -4 0 6 8 6 20 -1 11 -6 25
-8 31 -4 6 3 25 8 42 11 35 5 61 29 49 47 -4 6 -7 349 -8 761 -1 650 -3 767
-18 874 -9 69 -19 127 -21 130 -1 3 -6 24 -9 46 -23 147 -96 331 -181 460
-130 196 -275 276 -545 300 -36 3 -85 8 -110 10 -184 19 -243 26 -270 30 -14
2 -54 6 -90 9 -36 4 -74 8 -85 10 -11 2 -47 7 -80 11 -101 11 -301 38 -375 49
-14 2 -46 7 -72 11 l-47 6 1 -115z"/>
</g>
</svg>
