<?xml version="1.0" standalone="no"?>
<!DOCTYPE svg PUBLIC "-//W3C//DTD SVG 20010904//EN"
 "http://www.w3.org/TR/2001/REC-SVG-20010904/DTD/svg10.dtd">
<svg version="1.0" xmlns="http://www.w3.org/2000/svg"
 width="460.000000pt" height="460.000000pt" viewBox="0 0 460.000000 460.000000"
 preserveAspectRatio="xMidYMid meet">
<metadata>
Created by potrace 1.11, written by Peter Selinger 2001-2013
</metadata>
<g transform="translate(0.000000,460.000000) scale(0.100000,-0.100000)"
fill="#000000" stroke="none">
<path d="M2154 4592 c2 -4 -23 -5 -56 -4 -36 3 -58 0 -55 -6 4 -5 -12 -7 -40
-4 -28 3 -43 1 -40 -6 4 -5 -6 -8 -24 -6 -17 2 -36 1 -43 -3 -11 -8 -22 -9
-72 -12 -14 0 -23 -5 -20 -10 3 -4 -6 -6 -21 -3 -14 3 -23 1 -20 -4 3 -5 -8
-10 -24 -11 -47 -3 -59 -6 -59 -14 0 -4 -6 -7 -12 -6 -36 1 -59 -4 -54 -12 4
-5 -4 -7 -16 -3 -14 3 -19 1 -14 -6 5 -8 2 -10 -9 -6 -8 4 -23 0 -32 -7 -9 -8
-19 -13 -22 -13 -7 2 -19 -1 -46 -12 -11 -4 -22 -8 -25 -9 -34 -9 -49 -18 -44
-27 4 -7 2 -8 -5 -4 -12 8 -71 -14 -71 -26 0 -5 -3 -7 -7 -6 -15 3 -73 -28
-66 -36 4 -4 0 -4 -10 0 -10 3 -17 1 -17 -5 0 -6 -3 -10 -7 -9 -17 4 -53 -14
-47 -24 4 -6 2 -8 -3 -5 -6 4 -21 -1 -34 -11 -13 -10 -36 -24 -51 -31 -15 -8
-25 -18 -22 -22 3 -5 -2 -6 -10 -3 -9 3 -16 1 -16 -5 0 -6 -6 -11 -12 -11 -7
0 -26 -11 -42 -25 -16 -14 -33 -25 -38 -25 -5 0 -6 -5 -2 -12 4 -7 3 -8 -4 -4
-7 4 -24 -6 -39 -21 -16 -16 -32 -31 -38 -33 -5 -3 -9 -9 -7 -13 1 -5 -2 -6
-7 -3 -12 8 -107 -83 -103 -98 2 -6 0 -8 -4 -4 -9 10 -66 -31 -58 -43 3 -5 0
-8 -8 -7 -7 2 -12 -3 -10 -10 1 -8 -2 -11 -7 -8 -5 3 -15 -2 -22 -11 -12 -14
-12 -16 1 -9 8 4 5 -1 -8 -10 -12 -9 -22 -23 -22 -30 0 -8 -4 -13 -9 -11 -14
4 -72 -63 -65 -75 4 -6 3 -8 -3 -5 -6 4 -16 0 -23 -8 -7 -8 -10 -15 -8 -15 3
0 -10 -16 -29 -36 -19 -21 -32 -43 -29 -51 3 -8 2 -12 -3 -8 -5 3 -20 -9 -32
-27 -13 -18 -17 -28 -8 -24 10 6 10 4 -1 -6 -22 -19 -63 -78 -54 -78 4 0 -1
-7 -12 -15 -10 -8 -15 -15 -11 -15 4 0 -1 -10 -13 -22 -11 -12 -20 -30 -20
-40 0 -10 -4 -18 -9 -18 -7 0 -21 -33 -20 -48 0 -1 -7 -10 -16 -19 -9 -8 -14
-22 -11 -30 3 -8 2 -12 -3 -9 -5 3 -16 -16 -26 -42 -10 -26 -25 -57 -33 -69
-8 -13 -11 -23 -7 -23 4 0 2 -7 -5 -15 -7 -8 -10 -22 -6 -30 4 -11 2 -14 -6
-9 -8 5 -9 2 -5 -10 4 -10 3 -15 -3 -11 -6 3 -10 -1 -10 -9 0 -26 -1 -30 -12
-43 -5 -7 -7 -17 -3 -23 3 -5 2 -10 -3 -10 -9 0 -11 -8 -15 -54 -1 -13 -6 -22
-10 -19 -5 3 -7 -5 -6 -18 2 -13 -2 -33 -7 -44 -6 -11 -10 -27 -9 -35 0 -8 -2
-17 -6 -20 -4 -3 -9 -23 -13 -45 -3 -22 -9 -56 -13 -75 -3 -19 -7 -56 -7 -82
-1 -25 -4 -44 -9 -41 -8 4 -9 -28 -12 -259 -1 -82 1 -148 4 -148 3 0 4 -25 3
-56 -2 -31 0 -54 5 -51 4 3 9 -27 10 -65 1 -39 5 -74 10 -77 4 -3 8 -15 8 -26
-1 -11 3 -36 7 -55 5 -19 11 -48 14 -65 3 -16 10 -37 15 -46 4 -9 5 -19 2 -23
-3 -3 -2 -6 4 -6 6 0 11 -6 10 -13 -1 -31 4 -48 12 -43 5 4 7 -3 4 -14 -3 -11
0 -26 6 -33 6 -8 8 -17 4 -20 -3 -4 0 -7 7 -7 7 0 10 -3 7 -7 -4 -3 -2 -12 4
-20 6 -7 9 -13 6 -13 -3 0 -1 -13 4 -30 6 -17 16 -27 22 -23 6 3 7 1 3 -6 -9
-15 3 -53 15 -46 5 3 6 0 3 -8 -3 -8 2 -19 10 -26 8 -7 13 -18 10 -25 -3 -8 2
-20 10 -29 8 -8 12 -17 9 -21 -4 -3 -1 -6 6 -6 7 0 10 -4 6 -9 -3 -5 1 -16 9
-24 8 -8 12 -17 9 -21 -4 -3 -1 -6 5 -6 7 0 11 -3 11 -7 -3 -21 3 -33 17 -33
8 0 12 -4 9 -10 -8 -13 14 -52 25 -45 6 3 7 -1 4 -9 -3 -9 -1 -16 6 -16 6 0 9
-4 6 -9 -3 -5 6 -21 19 -35 14 -15 25 -29 25 -32 0 -14 73 -113 80 -109 4 3 7
-3 6 -13 0 -9 5 -16 11 -15 7 2 12 -1 10 -6 -1 -5 7 -17 18 -26 11 -9 13 -13
5 -9 -10 5 -9 1 4 -14 10 -12 23 -19 29 -15 5 3 7 1 4 -4 -4 -6 2 -22 14 -34
11 -13 17 -18 13 -10 -5 9 -3 12 5 7 6 -4 9 -11 6 -16 -7 -11 20 -32 30 -22 5
4 5 2 2 -4 -6 -11 32 -54 38 -44 2 3 7 1 12 -4 5 -6 2 -6 -7 -1 -13 8 -13 7
-1 -8 7 -9 20 -17 28 -17 8 0 12 -4 9 -9 -8 -12 19 -33 29 -23 5 4 5 2 2 -4
-6 -11 32 -50 46 -46 4 1 7 -4 7 -12 0 -12 21 -27 42 -30 3 -1 10 -5 15 -10 5
-6 2 -6 -7 -1 -13 8 -13 7 -1 -9 8 -9 20 -15 27 -12 7 3 16 0 20 -6 5 -7 2 -8
-7 -3 -12 8 -12 6 0 -8 7 -9 17 -14 22 -11 5 3 9 1 9 -5 0 -12 89 -74 106 -74
7 0 12 -5 11 -11 -1 -6 6 -10 16 -9 10 0 16 -2 13 -5 -9 -8 76 -62 87 -55 6 3
7 1 3 -5 -6 -11 6 -16 27 -13 4 0 7 -4 7 -10 0 -5 4 -8 9 -5 5 3 14 -1 21 -9
7 -8 19 -15 26 -15 8 0 14 -4 14 -8 0 -12 70 -43 81 -37 5 4 9 3 9 -2 0 -12
51 -33 64 -26 6 3 8 2 3 -2 -8 -10 132 -67 145 -59 4 3 8 0 8 -7 0 -7 3 -9 7
-6 3 4 12 2 19 -4 8 -6 21 -9 29 -5 10 4 14 2 9 -5 -4 -7 -1 -10 7 -7 7 2 24
-1 37 -8 13 -7 34 -11 48 -9 13 1 21 -1 19 -5 -3 -4 14 -11 38 -15 23 -5 49
-10 57 -11 31 -7 76 -15 105 -19 17 -2 44 -7 62 -11 l32 -6 -1 938 c0 516 -3
944 -5 951 -3 7 -10 10 -16 6 -5 -3 -7 -1 -4 4 8 12 -26 86 -35 78 -3 -4 -5 2
-4 12 0 10 -4 17 -11 16 -7 -2 -10 4 -7 12 4 8 1 15 -5 15 -6 0 -11 7 -11 15
0 8 -4 15 -10 15 -5 0 -10 5 -10 11 0 21 -41 69 -53 63 -7 -4 -9 -4 -5 1 10
11 -42 76 -55 68 -6 -3 -7 -1 -3 5 7 12 -32 38 -49 33 -5 -1 -7 1 -3 5 10 10
-32 45 -45 37 -5 -3 -7 -1 -4 4 8 12 -20 26 -34 17 -5 -3 -8 -1 -7 5 4 14 -70
48 -99 46 -12 -1 -20 2 -17 7 3 4 -7 9 -23 9 -15 1 -48 4 -73 6 -25 3 -66 6
-93 7 -26 0 -47 5 -47 9 0 5 -20 7 -45 4 -24 -2 -46 0 -47 4 -2 4 -39 10 -83
13 -44 3 -80 6 -80 7 0 4 -154 20 -217 22 -25 1 -44 5 -42 9 3 4 -17 6 -45 5
-27 -1 -47 2 -44 6 3 5 -8 8 -23 7 -16 -1 -31 -1 -34 0 -3 1 -18 4 -35 6 -16
1 -51 6 -78 9 -39 5 -47 4 -47 -10 0 -9 4 -14 9 -11 4 3 6 -6 3 -21 -3 -14 -1
-24 4 -20 5 3 10 -9 11 -27 1 -17 9 -48 17 -68 9 -21 16 -39 15 -40 -5 -10 66
-126 74 -121 6 4 8 0 4 -10 -4 -10 1 -21 12 -29 10 -7 20 -17 22 -23 7 -21 33
-44 42 -38 6 4 8 0 4 -10 -4 -10 3 -21 21 -33 15 -10 34 -26 43 -36 9 -10 24
-18 33 -18 9 0 15 -6 14 -12 -2 -7 3 -12 10 -10 6 1 12 -3 12 -9 0 -6 7 -9 15
-5 8 3 14 0 12 -7 -1 -7 6 -11 15 -11 10 1 16 -2 13 -6 -7 -11 24 -22 37 -13
6 3 8 1 5 -4 -6 -9 17 -20 53 -27 3 -1 11 -5 17 -9 7 -5 17 -5 23 -2 6 3 10 1
10 -6 0 -6 8 -9 20 -6 11 3 20 2 20 -2 0 -8 11 -11 64 -14 19 -1 32 -5 29 -9
-2 -5 13 -9 34 -10 21 -1 56 -3 78 -6 22 -2 84 -5 138 -6 53 0 97 -5 97 -10 0
-4 7 -6 15 -3 8 4 17 2 21 -4 3 -5 15 -7 26 -3 13 4 18 2 14 -4 -3 -5 1 -15 9
-22 16 -13 18 -90 3 -90 -4 0 -8 -6 -8 -14 0 -27 -35 -34 -185 -34 -165 -1
-233 3 -228 11 4 6 -40 11 -99 10 -10 0 -18 4 -18 8 0 4 -11 6 -25 4 -14 -1
-25 2 -25 8 0 5 -9 7 -20 4 -11 -3 -20 -1 -20 5 0 6 -9 8 -20 5 -11 -3 -18 -1
-15 3 4 7 -23 17 -65 25 -3 0 -15 6 -26 13 -12 6 -24 8 -28 5 -3 -3 -6 -1 -6
6 0 8 -6 11 -16 7 -8 -3 -12 -2 -9 3 5 9 -32 27 -47 23 -5 -1 -8 2 -8 8 0 13
-56 41 -65 32 -5 -4 -5 -2 -2 4 6 11 -14 26 -38 28 -5 1 -10 6 -10 11 0 20
-17 36 -32 31 -8 -3 -11 -2 -8 3 3 6 -1 13 -8 18 -8 4 -22 20 -32 36 -9 15
-24 27 -33 27 -8 0 -12 3 -9 6 10 10 -13 45 -24 38 -6 -3 -9 2 -7 12 2 11 -2
18 -8 17 -7 -1 -11 3 -11 10 2 21 -35 97 -44 91 -5 -3 -6 2 -3 10 3 9 1 16 -5
16 -6 0 -10 3 -10 8 1 4 0 9 -1 12 -1 3 -3 13 -5 23 -2 10 -7 26 -11 35 -10
23 -11 29 -13 53 0 11 -5 18 -10 15 -5 -4 -7 8 -4 25 2 17 1 29 -4 26 -5 -3
-8 9 -7 26 1 17 0 36 -3 41 -3 5 -6 65 -7 133 -1 133 3 144 49 136 54 -9 83
-13 121 -16 23 -3 46 -7 51 -10 6 -4 26 -5 46 -4 20 2 34 -1 31 -5 -3 -5 9 -9
28 -9 32 0 82 -5 163 -15 22 -3 61 -6 87 -7 25 -1 44 -6 41 -11 -3 -4 15 -7
41 -5 25 2 46 1 46 -2 0 -3 19 -7 43 -8 23 -1 58 -4 77 -6 128 -17 186 -23
216 -21 19 1 35 -2 36 -6 2 -4 46 -9 99 -10 54 -2 94 -7 91 -12 -3 -5 7 -7 22
-4 14 3 26 2 26 -2 0 -6 14 -11 68 -21 4 -1 15 -7 26 -14 10 -8 25 -11 34 -8
11 5 13 3 7 -7 -6 -10 -4 -12 9 -7 10 4 15 3 11 -3 -3 -5 4 -14 15 -20 11 -6
20 -9 20 -6 0 2 14 -9 31 -25 17 -16 34 -27 37 -26 4 1 9 -2 10 -8 7 -20 25
-35 35 -28 6 3 7 1 3 -5 -4 -7 -2 -12 3 -12 6 0 10 -6 9 -12 -2 -7 3 -12 10
-10 6 1 11 -1 10 -5 -4 -14 49 -83 57 -75 5 4 5 1 0 -7 -5 -9 -1 -19 11 -28
10 -8 18 -16 17 -18 -7 -13 -2 -25 9 -19 6 4 8 3 4 -4 -8 -13 14 -63 25 -57 4
3 5 -5 1 -17 -4 -16 -2 -19 8 -13 9 5 11 4 6 -3 -4 -6 0 -25 9 -42 8 -16 15
-32 15 -35 -1 -28 1 -35 9 -31 5 4 7 -4 3 -16 -3 -11 -1 -19 4 -16 5 4 10 -4
10 -15 1 -12 4 -31 7 -42 3 -11 6 -28 6 -38 1 -10 5 -15 11 -12 6 4 7 -6 4
-25 -4 -17 -2 -30 3 -30 6 0 8 -11 6 -24 -3 -13 0 -26 5 -30 6 -3 8 -20 6 -36
-3 -17 -1 -30 3 -30 5 0 7 -16 5 -36 -3 -20 -1 -34 4 -31 5 3 8 -22 6 -55 -1
-32 1 -57 5 -55 5 3 7 -329 7 -736 -1 -546 1 -744 10 -749 15 -10 263 0 296
12 3 1 22 2 43 2 20 0 35 3 32 8 -3 4 4 6 15 3 11 -3 28 -2 37 2 10 4 31 7 47
6 18 -2 26 1 22 8 -4 6 -1 9 7 5 8 -3 35 0 58 7 24 7 49 13 54 13 33 4 114 29
110 35 -2 4 6 7 18 6 12 -1 28 3 36 9 8 6 16 10 18 9 10 -8 33 -2 28 7 -3 6 1
7 9 4 9 -3 16 -2 16 4 0 5 6 10 13 9 34 -1 48 4 41 15 -4 6 -3 8 4 5 13 -9 44
2 37 13 -3 5 4 6 15 3 12 -3 20 0 20 6 0 7 4 10 9 6 5 -3 15 0 23 7 7 7 20 14
28 16 8 2 18 8 21 14 3 5 9 9 13 9 20 -3 26 0 21 9 -4 6 1 7 11 3 13 -5 15 -3
9 7 -5 8 -4 11 2 7 13 -8 93 30 93 45 0 6 3 8 6 5 10 -9 46 12 39 23 -3 6 1 7
9 4 9 -3 16 -1 16 5 0 6 7 11 15 11 8 0 15 5 15 11 0 5 5 7 10 4 6 -3 10 -2
10 2 0 5 10 13 23 18 12 6 21 16 20 23 -2 6 3 9 10 7 6 -3 23 5 37 18 14 13
38 32 53 41 15 10 24 23 20 29 -3 6 -1 7 6 3 6 -4 24 5 41 22 16 16 36 32 45
36 9 3 13 10 10 16 -3 5 1 10 10 10 8 0 19 10 24 23 5 12 10 20 12 17 7 -8 59
43 53 52 -3 5 -1 7 4 6 15 -4 103 93 95 105 -3 5 -1 7 4 4 6 -4 17 1 24 10 12
14 12 16 -1 8 -8 -4 2 8 23 28 21 20 35 41 32 47 -4 6 -1 9 6 8 7 -2 18 7 24
19 5 13 13 23 17 23 5 0 8 6 8 14 0 8 7 17 16 20 9 4 14 9 11 12 -3 3 3 14 14
25 11 11 17 24 14 28 -2 5 2 11 10 15 8 3 15 12 15 21 0 8 5 15 11 15 6 0 8 7
5 17 -4 10 -4 14 0 10 10 -10 36 31 28 45 -4 7 -3 8 4 4 11 -6 13 -2 12 19 -1
3 6 13 15 21 8 9 13 20 10 25 -4 5 -1 9 5 9 7 0 9 7 6 16 -3 8 -2 13 3 10 11
-7 23 22 14 36 -4 7 -1 8 7 3 10 -6 12 -4 7 9 -4 10 -3 15 3 11 9 -5 12 1 9
21 0 4 3 10 8 13 7 5 46 94 48 111 0 3 6 15 13 28 7 12 10 27 7 32 -3 6 -1 10
6 10 7 0 9 3 6 7 -4 3 -2 12 4 19 6 8 9 21 5 29 -3 10 -2 13 5 10 6 -4 9 -1 8
6 -1 8 3 27 10 43 6 16 9 31 6 34 -2 3 0 11 6 18 6 8 9 21 5 29 -3 8 -1 15 5
15 7 0 9 12 7 29 -2 17 -1 28 4 25 4 -3 9 3 9 13 1 10 2 29 3 43 1 14 5 30 8
35 3 6 5 25 4 42 -1 17 2 29 6 27 5 -3 7 15 5 40 -2 25 1 46 5 46 5 0 8 15 8
33 -1 17 1 92 4 165 3 73 2 130 -2 128 -4 -2 -7 30 -8 72 0 80 -16 217 -24
217 -1 0 -3 22 -6 50 -3 27 -8 52 -12 55 -4 3 -7 12 -7 20 1 8 -1 19 -4 25 -3
5 -6 16 -7 25 -2 8 -5 24 -8 35 -2 11 -5 26 -5 33 -1 7 -5 11 -10 8 -4 -3 -7
5 -6 17 1 12 -2 33 -8 47 -5 14 -12 34 -14 45 -2 10 -9 22 -15 27 -7 4 -9 10
-6 14 4 4 2 16 -4 28 -7 11 -13 28 -14 36 -2 8 -7 16 -13 18 -5 2 -8 9 -5 16
3 8 -3 22 -13 31 -10 10 -17 20 -15 22 6 8 1 23 -7 19 -5 -4 -7 4 -3 16 4 16
2 19 -8 13 -8 -5 -11 -4 -6 3 7 11 -11 51 -29 64 -5 4 -6 8 -1 8 5 0 2 8 -6
18 -9 9 -19 27 -23 40 -3 12 -10 20 -15 17 -4 -3 -7 3 -6 13 0 9 -4 16 -11 15
-7 -2 -10 4 -7 12 4 8 1 15 -6 15 -6 0 -9 4 -6 9 3 5 -6 21 -19 35 -14 15 -25
32 -25 37 0 5 -12 22 -27 36 -16 15 -21 22 -13 18 13 -8 13 -6 1 8 -7 9 -18
14 -24 10 -6 -3 -7 -1 -3 6 8 13 -42 78 -56 73 -5 -1 -6 2 -3 8 4 6 -2 19 -13
28 -10 9 -24 27 -31 40 -7 12 -16 20 -20 17 -5 -2 -11 5 -14 16 -4 13 -10 18
-18 13 -7 -4 -10 -3 -6 3 7 10 -33 49 -46 45 -5 -1 -6 2 -3 6 6 10 -32 49 -43
45 -3 -2 -6 0 -6 5 0 14 -16 32 -25 27 -4 -3 -10 5 -13 16 -4 13 -10 18 -18
13 -7 -4 -10 -3 -5 4 6 10 -39 49 -57 50 -5 0 -12 4 -15 8 -4 4 0 3 8 -1 13
-8 13 -7 1 9 -8 9 -20 15 -27 12 -8 -3 -13 0 -11 7 1 7 -4 11 -10 10 -7 -2
-12 3 -10 10 1 6 -6 11 -15 11 -10 -1 -16 2 -13 6 4 7 -72 64 -86 65 -3 0 -13
8 -23 18 -10 9 -22 14 -28 11 -6 -4 -8 -3 -5 3 7 12 -49 46 -63 38 -6 -4 -9
-1 -8 7 2 7 -5 12 -14 12 -10 -1 -15 2 -12 7 3 5 -2 9 -10 9 -9 0 -16 5 -16
11 0 6 -7 8 -16 5 -8 -3 -13 -2 -10 3 6 9 -70 46 -91 44 -7 0 -11 3 -8 7 7 11
-24 22 -37 13 -7 -4 -8 -1 -3 7 6 10 3 12 -13 8 -12 -4 -20 -3 -17 2 7 11 -24
22 -37 13 -7 -3 -8 -1 -4 5 5 8 0 12 -13 12 -11 0 -23 5 -26 11 -4 6 -13 8
-21 5 -8 -3 -14 -1 -14 5 0 6 -6 9 -14 6 -8 -3 -16 -1 -18 4 -2 5 -13 11 -26
12 -12 0 -22 5 -22 9 0 4 -8 8 -17 8 -10 0 -37 7 -60 15 -47 16 -97 28 -130
29 -11 1 -19 4 -16 9 2 4 -6 7 -19 8 -13 0 -34 3 -48 6 -14 4 -41 7 -62 7 -20
0 -34 5 -31 10 4 5 -14 7 -40 4 -26 -3 -44 -2 -41 3 3 5 -7 9 -23 9 -15 0
-108 2 -206 4 -97 3 -175 2 -173 -2z m1776 -1211 c8 -1 6 -251 -2 -251 -4 0
-7 -17 -6 -37 1 -21 -4 -51 -11 -67 -6 -16 -10 -35 -7 -43 3 -7 2 -13 -2 -13
-6 0 -34 -75 -37 -100 0 -3 -6 -15 -13 -26 -6 -12 -8 -24 -5 -28 3 -3 1 -6 -6
-6 -8 0 -11 -6 -7 -16 3 -8 2 -12 -4 -9 -5 3 -12 -6 -16 -20 -3 -14 -11 -25
-16 -25 -6 0 -8 -7 -4 -15 3 -8 1 -14 -3 -12 -5 1 -10 -2 -12 -8 -1 -5 -9 -15
-17 -21 -8 -6 -12 -16 -8 -23 5 -7 2 -10 -6 -9 -7 2 -12 -3 -10 -10 1 -8 -2
-11 -7 -8 -11 7 -33 -19 -23 -28 4 -4 0 -6 -8 -4 -8 2 -14 -4 -15 -12 0 -8 -4
-15 -10 -15 -18 0 -36 -16 -29 -26 3 -5 0 -8 -8 -7 -7 2 -12 -2 -11 -9 2 -7
-4 -10 -12 -7 -8 4 -15 1 -15 -4 0 -6 -9 -14 -20 -17 -11 -4 -17 -11 -14 -17
4 -6 2 -8 -4 -4 -6 3 -17 -1 -25 -9 -9 -8 -21 -15 -27 -15 -6 0 -8 -5 -4 -12
4 -6 3 -8 -4 -5 -15 10 -43 -3 -35 -16 3 -5 1 -7 -5 -4 -13 9 -44 -2 -37 -13
3 -5 -3 -6 -13 -3 -11 2 -25 -2 -33 -10 -8 -7 -20 -12 -28 -9 -8 3 -11 0 -7
-6 4 -6 -2 -8 -16 -4 -11 3 -19 1 -16 -4 4 -5 -4 -10 -15 -10 -12 -1 -33 -4
-47 -8 -128 -31 -149 -33 -462 -50 -21 -1 -38 2 -38 6 0 4 -13 6 -30 4 -17 -2
-35 3 -41 10 -6 8 -15 11 -20 8 -5 -3 -9 -2 -8 3 3 20 -2 44 -9 39 -4 -2 -7
11 -6 29 2 31 36 80 48 67 3 -3 6 -1 6 5 0 6 9 9 20 6 11 -3 20 -1 20 3 0 5
43 8 95 7 52 -1 95 1 95 5 0 4 25 6 55 5 30 -2 55 1 55 6 0 4 11 6 25 3 14 -2
25 0 25 4 0 5 21 10 47 11 26 1 49 6 51 11 2 6 12 7 24 4 14 -3 19 -1 14 6 -5
8 -2 10 9 6 8 -4 23 0 32 7 9 8 18 13 20 12 9 -7 23 -2 18 7 -4 6 1 7 11 3 12
-4 15 -3 10 5 -5 8 -2 10 8 6 10 -4 16 -1 16 7 0 7 3 10 6 6 8 -8 72 27 91 50
8 10 11 11 7 3 -11 -22 29 13 114 99 39 40 72 80 72 87 0 8 5 14 11 14 6 0 8
7 5 17 -4 10 -4 14 0 10 8 -8 41 42 46 70 2 10 7 21 11 24 5 3 10 12 11 20 2
8 6 22 10 31 4 9 8 22 10 30 1 7 5 19 9 26 5 6 5 17 2 22 -3 6 -2 10 4 10 5 0
8 11 6 25 -1 14 2 25 6 25 5 0 9 5 9 10 0 6 -16 10 -36 10 -19 0 -33 -3 -31
-7 3 -5 -12 -7 -34 -7 -21 1 -39 -1 -39 -5 0 -4 -18 -6 -40 -4 -22 2 -40 -1
-40 -5 0 -4 -18 -7 -40 -5 -22 1 -38 -1 -36 -5 3 -5 -11 -6 -30 -4 -18 2 -42
1 -51 -3 -10 -4 -33 -7 -52 -6 -18 2 -31 -1 -28 -6 3 -5 -14 -7 -39 -6 -24 1
-44 -1 -44 -5 0 -4 -21 -8 -48 -8 -106 -3 -123 -4 -119 -11 5 -7 -36 -11 -146
-12 -21 -1 -36 -5 -33 -9 3 -5 -17 -7 -44 -5 -28 1 -50 -1 -50 -5 0 -4 -21 -8
-46 -8 -27 -1 -50 -8 -55 -15 -5 -8 -9 -10 -9 -5 0 5 -7 3 -15 -4 -8 -7 -15
-10 -15 -6 0 4 -13 0 -30 -9 -16 -9 -30 -21 -30 -27 0 -6 -3 -8 -6 -5 -11 10
-45 -13 -38 -25 4 -7 3 -8 -4 -4 -12 7 -119 -92 -115 -106 2 -4 -3 -7 -10 -5
-6 1 -11 -4 -10 -10 2 -7 -4 -13 -12 -13 -9 0 -19 -8 -22 -17 -4 -10 -14 -23
-22 -30 -9 -7 -13 -13 -9 -13 4 0 -4 -12 -17 -26 -14 -15 -22 -30 -19 -35 3
-5 1 -9 -4 -9 -5 0 -14 -11 -20 -25 -15 -32 -30 -32 -38 0 -3 14 -11 22 -17
18 -6 -4 -8 0 -4 10 6 16 -15 42 -25 31 -3 -3 -5 3 -4 13 0 11 -5 17 -14 15
-8 -2 -12 0 -8 3 4 4 3 16 -2 25 -7 13 -5 20 6 24 9 4 14 13 10 21 -3 8 -1 14
5 12 6 -1 16 7 22 18 7 11 22 29 35 41 13 11 25 29 26 40 2 10 9 19 17 19 8 1
13 7 11 15 -2 8 0 12 4 8 9 -10 35 12 28 23 -3 5 0 8 8 7 7 -2 12 3 11 9 -2 7
3 12 10 10 6 -1 11 4 10 10 -2 7 3 12 10 10 6 -1 11 4 10 10 -2 7 3 12 10 10
6 -1 11 4 10 10 -2 7 3 12 10 10 6 -1 11 4 9 11 -1 8 2 11 8 7 5 -3 20 3 32
14 12 12 26 21 30 21 5 0 6 6 2 13 -4 6 -4 9 1 5 7 -6 59 16 75 32 3 3 10 6
15 7 6 1 30 10 55 19 25 9 55 16 68 15 13 0 21 2 18 7 -2 4 19 5 46 3 30 -2
48 1 45 6 -4 6 12 8 38 6 25 -3 45 -1 45 4 0 5 18 7 40 5 22 -2 40 0 40 4 0 5
21 9 48 10 26 0 67 3 92 7 25 5 60 8 78 7 19 0 31 3 28 8 -2 4 17 6 45 5 27
-2 49 0 49 5 0 4 18 7 40 5 22 -2 40 0 40 5 0 6 27 9 133 12 20 1 35 4 33 8
-2 4 17 7 42 8 44 0 93 5 202 19 24 3 45 7 47 8 2 2 46 1 63 -2z m-2060 -461
c7 -8 93 -34 103 -32 4 1 7 -2 7 -8 0 -5 4 -10 9 -10 6 0 22 -11 37 -25 14
-13 31 -22 37 -18 5 3 7 1 4 -4 -6 -10 29 -50 42 -46 3 1 5 -5 3 -13 -2 -8 2
-14 8 -14 5 0 10 -7 10 -15 0 -8 5 -15 10 -15 6 0 10 -7 10 -15 0 -8 5 -15 10
-15 6 0 9 -3 9 -7 -3 -20 2 -34 11 -28 6 4 7 -1 3 -11 -4 -10 -2 -15 3 -11 5
3 10 -2 11 -11 1 -23 12 -74 19 -92 12 -30 14 -80 17 -357 1 -202 -1 -279 -9
-272 -6 5 -15 5 -19 1 -5 -4 -5 -1 -1 6 4 6 4 18 -1 25 -4 6 -9 21 -10 32 -2
10 -7 22 -11 25 -4 3 -9 16 -9 29 -1 13 -8 28 -15 32 -7 5 -9 9 -5 9 5 0 5 6
0 13 -4 6 -8 14 -9 17 -7 30 -28 69 -35 64 -5 -3 -6 3 -2 12 4 12 3 15 -5 10
-8 -4 -10 -2 -6 7 3 8 -2 21 -10 30 -9 9 -16 21 -16 27 0 6 -5 8 -12 4 -6 -4
-8 -3 -5 3 7 11 -21 55 -31 49 -4 -2 -6 28 -5 67 3 78 -13 180 -27 172 -4 -3
-6 4 -3 15 3 12 0 20 -6 20 -7 0 -10 4 -6 9 3 5 -2 16 -10 24 -8 9 -15 20 -15
25 0 13 -35 43 -43 37 -4 -3 -5 -2 -3 1 10 13 -47 57 -74 58 -15 1 -26 4 -24
8 4 6 -133 4 -146 -2 -3 -1 -8 -2 -12 -1 -5 0 -8 -3 -8 -9 0 -5 -3 -9 -7 -9
-19 3 -34 -2 -29 -9 2 -4 -3 -8 -13 -8 -12 0 -17 6 -13 18 2 10 0 18 -6 18 -5
0 -10 6 -9 13 1 32 -4 48 -13 42 -6 -3 -7 1 -4 9 3 9 1 16 -6 16 -6 0 -9 4 -6
9 4 5 2 21 -4 35 -8 23 -7 26 11 26 11 0 18 4 15 9 -3 5 4 9 17 9 34 0 107 14
111 21 5 7 179 8 186 1z"/>
</g>
</svg>
